<?xml version="1.0" encoding="utf-8"?>
<!-- Generator: Adobe Illustrator 18.0.0, SVG Export Plug-In . SVG Version: 6.00 Build 0)  -->
<!DOCTYPE svg PUBLIC "-//W3C//DTD SVG 1.1//EN" "http://www.w3.org/Graphics/SVG/1.1/DTD/svg11.dtd">
<svg version="1.1" id="Layer_1" xmlns="http://www.w3.org/2000/svg" xmlns:xlink="http://www.w3.org/1999/xlink" x="0px" y="0px"
	 width="22px" height="30px" viewBox="0 0 22 30" enable-background="new 0 0 22 30" xml:space="preserve">
<g>
	<path fill="#67B2E8" d="M20.9,0H5.9C5.6,0,5.4,0,5.2,0.2l-5,4.7C-0.1,5,0,5.2,0,5.5V9v2.9v16.9C0,29.4,0.1,30,0.6,30h20.3
		c0.5,0,1.1-0.6,1.1-1.2v-28C22,0.3,21.5,0,20.9,0z"/>
	<polygon fill="#FFFFFF" points="20,28 2,28 2,11.9 2,9 2,6 6,6 6,1.8 6.2,2 20,2 	"/>
</g>
<g>
	<g>
		<path fill="#67B2E8" d="M17.8,18.1V8.9c0-0.5-0.4-1-1-1H8.8c-0.5,0-1,0.4-1,1V17c-0.4-0.1-0.9-0.2-1.3-0.1c-1.6,0.2-2.8,1.6-2.6,3
			c0.2,1.5,1.7,2.5,3.3,2.3c1.6-0.2,2.6-1.5,2.6-2.9V9.9h6.1v5.8c-0.4-0.1-0.9-0.2-1.3-0.1c-1.6,0.2-2.8,1.6-2.6,3
			c0.2,1.5,1.7,2.5,3.3,2.3C16.8,20.7,17.8,19.4,17.8,18.1L17.8,18.1z M17.8,18.1"/>
	</g>
</g>
</svg>
