<?xml version="1.0" encoding="utf-8"?>
<!-- Generator: Adobe Illustrator 19.2.1, SVG Export Plug-In . SVG Version: 6.00 Build 0)  -->
<svg version="1.0" id="Layer_1" xmlns="http://www.w3.org/2000/svg" xmlns:xlink="http://www.w3.org/1999/xlink" x="0px" y="0px"
	 viewBox="0 0 27.6 38.1" style="enable-background:new 0 0 27.6 38.1;" xml:space="preserve">
<g>
	<path d="M13.8,7.6c-2.8,0-5.1,2.3-5.1,5.1s2.3,5.1,5.1,5.1c2.8,0,5.1-2.3,5.1-5.1S16.6,7.6,13.8,7.6z M13.8,14.8
		c-1.2,0-2.1-1-2.1-2.1c0-1.1,1-2.1,2.1-2.1c1.1,0,2.1,1,2.1,2.1C15.9,13.8,15,14.8,13.8,14.8z"/>
	<path d="M13.8,0C6.2,0,0,6.2,0,13.8c0,7.1,11.3,22.1,12.6,23.7c0.3,0.4,0.7,0.6,1.2,0.6s0.9-0.2,1.2-0.6
		c1.3-1.7,12.6-16.6,12.6-23.7C27.6,6.1,21.4,0,13.8,0z M13.8,34.1C10,28.9,3,18.4,3,13.8C3,7.8,7.8,3,13.8,3s10.8,4.8,10.8,10.8
		C24.6,18.4,17.6,28.8,13.8,34.1z"/>
</g>
</svg>
