<?xml version="1.0" encoding="utf-8"?>
<!-- Generator: Adobe Illustrator 19.2.1, SVG Export Plug-In . SVG Version: 6.00 Build 0)  -->
<svg version="1.0" id="Layer_1" xmlns="http://www.w3.org/2000/svg" xmlns:xlink="http://www.w3.org/1999/xlink" x="0px" y="0px"
	 viewBox="0 0 37.1 27.9" style="enable-background:new 0 0 37.1 27.9;" xml:space="preserve">
<path d="M35.6,0H1.5C0.7,0,0,0.7,0,1.5v24.9c0,0.8,0.7,1.5,1.5,1.5h34.1c0.8,0,1.5-0.7,1.5-1.5V1.5C37.1,0.7,36.4,0,35.6,0z M30.8,3
	L18.5,15.6L6.3,3H30.8z M34.2,24.9H3v-21C3,3.9,3,4,3.1,4l14.4,14.8c0.3,0.3,0.7,0.5,1.1,0.5c0.4,0,0.8-0.2,1.1-0.5L34.1,4
	c0,0,0-0.1,0.1-0.1V24.9z"/>
</svg>
