<?xml version="1.0" encoding="utf-8"?>
<!-- Generator: Adobe Illustrator 19.2.1, SVG Export Plug-In . SVG Version: 6.00 Build 0)  -->
<svg version="1.0" id="Layer_1" xmlns="http://www.w3.org/2000/svg" xmlns:xlink="http://www.w3.org/1999/xlink" x="0px" y="0px"
	 viewBox="0 0 24.8 38.4" style="enable-background:new 0 0 24.8 38.4;" xml:space="preserve">
<path d="M12.4,33.4c1.6,0,3-1.3,3-2.9c0-1.6-1.3-2.9-3-2.9c-1.6,0-3,1.3-3,2.9C9.4,32.1,10.7,33.4,12.4,33.4z"/>
<path d="M21.7,0H3C1.3,0,0,1.3,0,3v32.4c0,1.7,1.3,3,3,3h18.8c1.7,0,3-1.3,3-3V3C24.7,1.4,23.4,0,21.7,0z M3,3h18.7v19.9H3V3z
	 M21.8,35.4H3v-9.5h18.8V35.4z"/>
</svg>
