<?xml version="1.0" encoding="utf-8"?>
<!-- Generator: Adobe Illustrator 18.0.0, SVG Export Plug-In . SVG Version: 6.00 Build 0)  -->
<!DOCTYPE svg PUBLIC "-//W3C//DTD SVG 1.1//EN" "http://www.w3.org/Graphics/SVG/1.1/DTD/svg11.dtd">
<svg version="1.1" id="Layer_1" xmlns="http://www.w3.org/2000/svg" xmlns:xlink="http://www.w3.org/1999/xlink" x="0px" y="0px"
	 viewBox="0 0 19.825 20" enable-background="new 0 0 19.825 20" xml:space="preserve">
<g>
	<path fill="#52BDC3" d="M19.136,4.786c-0.458-1.048-1.096-1.926-1.911-2.633c-0.816-0.707-1.793-1.243-2.931-1.607
		C13.159,0.182,11.906,0,10.535,0C9.822,0,9.063,0.09,8.262,0.272c-0.801,0.183-1.595,0.46-2.383,0.831
		c-0.786,0.372-1.533,0.845-2.24,1.42C2.933,3.1,2.309,3.784,1.77,4.579c-0.54,0.794-0.969,1.698-1.29,2.71
		C0.161,8.302,0,9.435,0,10.688c0,1.37,0.211,2.627,0.633,3.771c0.423,1.144,1.04,2.125,1.848,2.941
		c0.809,0.815,1.803,1.453,2.983,1.912C6.645,19.77,7.992,20,9.508,20c1.006,0,1.921-0.105,2.744-0.316
		c0.822-0.212,1.552-0.496,2.186-0.853c0.633-0.358,1.169-0.765,1.607-1.224c0.437-0.46,0.771-0.937,1.005-1.431h-2.82
		c-0.422,0.495-1.005,0.907-1.748,1.234c-0.743,0.328-1.698,0.492-2.863,0.492c-1.21,0-2.263-0.182-3.159-0.546
		s-1.642-0.875-2.24-1.531c-0.598-0.655-1.042-1.428-1.333-2.317c-0.291-0.889-0.437-1.858-0.437-2.907
		c0-1.297,0.219-2.47,0.655-3.52s1.023-1.941,1.759-2.677C5.599,3.669,6.455,3.1,7.431,2.7c0.977-0.401,2.012-0.601,3.104-0.601
		c1.08,0,2.048,0.124,2.908,0.372c0.859,0.247,1.592,0.627,2.197,1.136c0.604,0.511,1.07,1.159,1.399,1.945
		c0.326,0.787,0.491,1.72,0.491,2.799c0,0.845-0.08,1.577-0.24,2.196c-0.161,0.62-0.372,1.13-0.634,1.531
		c-0.262,0.401-0.561,0.696-0.897,0.885c-0.335,0.19-0.677,0.284-1.027,0.284c-0.452,0-0.678-0.255-0.678-0.765
		c0-0.117,0.008-0.211,0.021-0.284l1.226-7.104h-2.732l-0.197,1.18c-0.32-0.51-0.707-0.874-1.159-1.092
		c-0.452-0.22-0.918-0.329-1.399-0.329c-0.728,0-1.403,0.157-2.022,0.471c-0.62,0.313-1.151,0.751-1.596,1.311
		c-0.444,0.561-0.795,1.228-1.048,2c-0.256,0.772-0.383,1.617-0.383,2.535c0,0.598,0.077,1.151,0.23,1.661
		c0.153,0.511,0.385,0.959,0.698,1.345c0.314,0.387,0.701,0.688,1.16,0.907c0.458,0.219,0.994,0.328,1.606,0.328
		c0.627,0,1.209-0.134,1.749-0.404c0.537-0.269,1.035-0.753,1.485-1.453c0.159,0.642,0.485,1.085,0.973,1.333
		c0.487,0.247,1.125,0.372,1.912,0.372c0.642,0,1.274-0.136,1.902-0.404c0.625-0.27,1.188-0.682,1.683-1.236
		c0.495-0.554,0.897-1.264,1.203-2.131c0.305-0.868,0.458-1.899,0.458-3.093C19.825,7.038,19.596,5.836,19.136,4.786z M11.629,9.705
		l-0.109,0.699c-0.058,0.35-0.142,0.686-0.251,1.006c-0.11,0.32-0.259,0.601-0.448,0.841c-0.19,0.241-0.423,0.433-0.699,0.579
		c-0.278,0.146-0.613,0.219-1.006,0.219c-0.423,0-0.768-0.175-1.038-0.524c-0.269-0.35-0.404-0.897-0.404-1.64
		c0-0.642,0.069-1.202,0.208-1.683c0.138-0.481,0.319-0.878,0.545-1.192s0.49-0.55,0.789-0.711c0.298-0.159,0.608-0.24,0.928-0.24
		c0.364,0,0.659,0.073,0.885,0.219s0.394,0.339,0.502,0.579c0.11,0.241,0.168,0.521,0.176,0.841
		C11.713,9.021,11.686,9.355,11.629,9.705z"/>
</g>
</svg>
