<?xml version="1.0" encoding="utf-8"?>
<!-- Generator: Adobe Illustrator 18.0.0, SVG Export Plug-In . SVG Version: 6.00 Build 0)  -->
<!DOCTYPE svg PUBLIC "-//W3C//DTD SVG 1.1//EN" "http://www.w3.org/Graphics/SVG/1.1/DTD/svg11.dtd">
<svg version="1.1" id="Layer_1" xmlns="http://www.w3.org/2000/svg" xmlns:xlink="http://www.w3.org/1999/xlink" x="0px" y="0px"
	 viewBox="0 0 18 18" enable-background="new 0 0 18 18" xml:space="preserve">
<g>
	<path fill="#A2AAB6" d="M10.4,4.2c0,1.2-0.6,2.1-1.6,2.8c-0.9,0.7-1.1,1-1.1,1.6c0,0.5,1.1,1.3,1.6,1.6c1.7,1.3,2.1,2.1,2.1,3.7
		c0,2-2.2,4-5.7,4C2.6,18,0,16.7,0,14.7c0-2,2.2-4.2,5.2-4.2c0.3,0,0.6,0,1,0c-0.4-0.4-0.8-0.8-0.8-1.4c0-0.4,0.1-0.7,0.3-1
		c-0.2,0-0.3,0-0.5,0c-2.5,0-4-1.8-4-4C1.2,2,3.4,0,6.1,0c1.4,0,5.3,0,5.3,0l-1.2,1.2H8.9C9.8,1.8,10.4,3,10.4,4.2z"/>
	<polygon fill="#A2AAB6" points="18,3.9 15.5,3.9 15.5,6.4 14.3,6.4 14.3,3.9 11.9,3.9 11.9,2.7 14.3,2.7 14.3,0.2 15.5,0.2 
		15.5,2.7 18,2.7 	"/>
	<path fill="#FFFFFF" d="M5.3,0.9c-1.4,0-2.4,1.4-2.1,3.3c0.2,1.9,1.6,3.2,3,3.2c1.4,0,2.3-1.2,2-3C8,2.4,6.8,0.9,5.3,0.9z"/>
	<path fill="#FFFFFF" d="M5.9,11.2c-2.1,0-3.9,1.3-3.9,2.9c0,1.6,1.5,3,3.7,3c3,0,4-1.3,4-2.9c0-0.2,0-0.4-0.1-0.6
		c-0.2-0.9-1.2-1.4-2.3-2.2C6.9,11.3,6.4,11.2,5.9,11.2z"/>
</g>
</svg>
