<?xml version="1.0" encoding="utf-8"?>
<!-- Generator: Adobe Illustrator 18.0.0, SVG Export Plug-In . SVG Version: 6.00 Build 0)  -->
<!DOCTYPE svg PUBLIC "-//W3C//DTD SVG 1.1//EN" "http://www.w3.org/Graphics/SVG/1.1/DTD/svg11.dtd">
<svg version="1.1" id="Layer_1" xmlns="http://www.w3.org/2000/svg" xmlns:xlink="http://www.w3.org/1999/xlink" x="0px" y="0px"
	 viewBox="0 0 40 40" enable-background="new 0 0 40 40" xml:space="preserve">
<path fill="#52BDC3" d="M25.1,0c-8.2,0-14.9,6.6-14.9,14.9c0,3.7,1.4,7.1,3.6,9.6l-0.7,0.7h-1.8L0,36.6L3.4,40l11.4-11.4v-1.8
	l0.7-0.7c0.5,0.4,0.9,0.8,1.5,1.2c2.3,1.6,5.1,2.5,8.1,2.5c8.2,0,14.9-6.6,14.9-14.9C40,6.6,33.4,0,25.1,0z M25.1,25.1
	c-5.7,0-10.3-4.6-10.3-10.3c0-5.7,4.6-10.3,10.3-10.3c5.7,0,10.3,4.6,10.3,10.3C35.4,20.6,30.9,25.1,25.1,25.1z"/>
</svg>
