<?xml version="1.0" encoding="utf-8"?>
<!-- Generator: Adobe Illustrator 18.1.1, SVG Export Plug-In . SVG Version: 6.00 Build 0)  -->
<svg version="1.1" id="Layer_1" xmlns="http://www.w3.org/2000/svg" xmlns:xlink="http://www.w3.org/1999/xlink" x="0px" y="0px"
	 viewBox="0 0 29.7 24.1" enable-background="new 0 0 29.7 24.1" xml:space="preserve">
<path fill="#1E1E1C" d="M29.7,2.9c-1.1,0.5-2.3,0.8-3.5,1c1.3-0.8,2.2-1.9,2.7-3.4c-1.2,0.7-2.5,1.2-3.9,1.5C23.9,0.7,22.3,0,20.6,0
	c-3.4,0-6.1,2.7-6.1,6.1c0,0.5,0.1,0.9,0.2,1.4C9.6,7.2,5.1,4.8,2.1,1.1C1.5,2,1.2,3.1,1.2,4.2c0,2.1,1.1,4,2.7,5.1
	C3,9.2,2,8.9,1.2,8.5c0,0,0,0.1,0,0.1c0,3,2.1,5.4,4.9,6c-0.5,0.1-1,0.2-1.6,0.2c-0.4,0-0.8,0-1.1-0.1c0.8,2.4,3,4.2,5.7,4.2
	c-2.1,1.6-4.7,2.6-7.6,2.6c-0.5,0-1,0-1.5-0.1c2.7,1.7,5.9,2.7,9.3,2.7c11.2,0,17.3-9.3,17.3-17.3c0-0.3,0-0.5,0-0.8
	C27.8,5.2,28.9,4.1,29.7,2.9z"/>
</svg>
